#!OML:ASF F:\VICON\USERDATA\INSTALL\rory3\rory3.ASF
:FULLY-SPECIFIED
:DEGREES
1035
root -2.77185 25.7862 -5.16548 -1.66439 -3.21401 2.98758
lowerback 9.71058 2.61558 -1.4241
upperback 1.82437 3.23494 -2.296
thorax -3.48488 1.61066 -1.98697
lowerneck -6.95025 1.53311 -5.58968
upperneck 31.3445 2.22575 3.79087
head 11.145 0.828771 2.62451
rclavicle -6.5102e-015 1.66979e-014
rhumerus -28.9876 2.55493 -84.0294
rradius 29.4305
rwrist 18.2666
rhand -25.4269 4.67981
rfingers 7.12502
rthumb 1.09928 -25.2971
lclavicle -6.5102e-015 1.66979e-014
lhumerus -38.6924 28.2165 66.5501
lradius 23.4718
lwrist -2.47492
lhand -27.6217 18.6875
lfingers 7.12502
lthumb -1.02058 48.6648
rfemur -14.0516 15.7244 22.5762
rtibia 31.9267
rfoot -14.3789 -9.29886
rtoes 4.71867
lfemur -29.4567 14.7062 -17.744
ltibia 96.6381
lfoot -20.1533 -5.35481
ltoes -12.5751
1036
root -2.77778 25.7732 -5.12868 -1.74573 -3.2985 3.06181
lowerback 9.88781 2.54929 -1.31474
upperback 1.89956 3.15674 -2.23785
thorax -3.50391 1.57076 -1.98472
lowerneck -6.883 1.5977 -5.50423
upperneck 31.4347 2.35614 3.59045
head 11.1653 0.872202 2.55112
rclavicle -2.15433e-014 5.56597e-015
rhumerus -28.6419 2.91017 -83.952
rradius 29.5179
rwrist 18.0981
rhand -25.4121 4.2096
rfingers 7.12502
rthumb 1.11352 -25.7672
lclavicle -2.15433e-014 5.56597e-015
lhumerus -38.1999 27.4343 67.6223
lradius 23.999
lwrist -1.16297
lhand -28.2346 20.3069
lfingers 7.12502
lthumb -1.6125 50.2805
rfemur -14.1411 15.603 22.5303
rtibia 32.4159
rfoot -14.6606 -8.98739
rtoes 4.90343
lfemur -29.8065 14.5146 -17.7086
ltibia 97.2461
lfoot -19.0232 -5.69045
ltoes -10.9302
1037
root -2.78401 25.7642 -5.08635 -1.80809 -3.35287 3.14863
lowerback 9.92531 2.45372 -1.22381
upperback 1.96389 3.04109 -2.20283
thorax -3.45754 1.51282 -1.98432
lowerneck -6.68068 1.67542 -5.38869
upperneck 31.4596 2.49148 3.38724
head 11.1334 0.921773 2.46745
rclavicle -4.78574e-014 1.0138e-014
rhumerus -28.2834 3.14432 -83.8911
rradius 29.4878
rwrist 17.9422
rhand -25.7404 4.47759
rfingers 7.12502
rthumb 0.796493 -25.5007
lclavicle -4.78574e-014 1.0138e-014
lhumerus -38.1316 27.9316 67.497
lradius 23.7611
lwrist -2.61693
lhand -27.8099 18.7264
lfingers 7.12502
lthumb -1.20234 48.7028
rfemur -14.1284 15.445 22.4714
rtibia 32.7757
rfoot -14.8498 -8.6994
rtoes 4.42624
lfemur -30.1515 14.2996 -17.7383
ltibia 97.7856
lfoot -18.0306 -5.91908
ltoes -10.5786
1038
root -2.79 25.7571 -5.04225 -1.8198 -3.34096 3.09094
lowerback 9.92196 2.36123 -0.994287
upperback 1.96749 2.9456 -2.12367
thorax -3.44682 1.46363 -2.01827
lowerneck -6.50674 1.67567 -5.44746
upperneck 31.6119 2.50556 3.3388
head 11.1582 0.912172 2.46232
rclavicle -8.82107e-015 -1.88845e-014
rhumerus -28.0785 3.0223 -83.7245
rradius 29.4983
rwrist 18.0846
rhand -26.2013 4.6747
rfingers 7.12502
rthumb 0.351308 -25.3048
lclavicle -8.82107e-015 -1.88845e-014
lhumerus -37.8225 27.5039 68.1836
lradius 24.0059
lwrist -2.2905
lhand -28.1918 20.3685
lfingers 7.12502
lthumb -1.57119 50.3425
rfemur -14.0931 15.2075 22.5559
rtibia 32.9952
rfoot -14.8645 -8.43447
rtoes 3.90215
lfemur -30.5519 14.04 -17.6286
ltibia 98.3221
lfoot -17.1177 -6.16317
ltoes -10.6038
1039
root -2.79764 25.7503 -5.00037 -1.76417 -3.32278 2.90148
lowerback 9.86097 2.27487 -0.66877
upperback 1.98022 2.87123 -2.00224
thorax -3.39202 1.4245 -2.06184
lowerneck -6.48524 1.64564 -5.57468
upperneck 31.7804 2.47305 3.37452
head 11.2196 0.883081 2.49851
rclavicle -3.24764e-014 3.51849e-014
rhumerus -27.8773 2.84781 -83.5187
rradius 29.6149
rwrist 18.323
rhand -26.1749 4.39286
rfingers 7.12502
rthumb 0.3768 -25.5865
lclavicle -3.24764e-014 3.51849e-014
lhumerus -37.4986 26.963 68.9349
lradius 24.2947
lwrist -1.75231
lhand -28.5544 21.208
lfingers 7.12502
lthumb -1.9214 51.1791
rfemur -14.0722 15.0755 22.795
rtibia 33.0878
rfoot -14.8869 -8.32102
rtoes 4.22491
lfemur -31.0194 13.7855 -17.344
ltibia 98.8671
lfoot -16.1338 -6.52643
ltoes -8.55191
1040
root -2.80619 25.7515 -4.9523 -1.66887 -3.27826 2.71035
lowerback 9.60511 2.19076 -0.357864
upperback 2.07181 2.80223 -1.88101
thorax -3.14853 1.39002 -2.08694
lowerneck -6.52221 1.65044 -5.57424
upperneck 31.9455 2.48966 3.34803
head 11.292 0.88409 2.49579
rclavicle -1.57288e-014 -3.37934e-015
rhumerus -27.5739 2.66756 -83.2779
rradius 29.7564
rwrist 18.2627
rhand -25.9811 4.08085
rfingers 7.12502
rthumb 0.564013 -25.8981
lclavicle -1.57288e-014 -3.37934e-015
lhumerus -37.2649 27.1673 69.1424
lradius 24.2482
lwrist -2.70564
lhand -28.3182 20.1743
lfingers 7.12502
lthumb -1.6932 50.1474
rfemur -14.0045 14.9996 23.0447
rtibia 33.102
rfoot -15.0132 -8.26285
rtoes 4.75896
lfemur -31.4521 13.5588 -17.0901
ltibia 99.3017
lfoot -15.1304 -6.62884
ltoes -6.74859
1041
root -2.81487 25.7573 -4.90899 -1.63108 -3.17032 2.59187
lowerback 9.4876 2.10965 -0.116108
upperback 2.14154 2.72488 -1.78229
thorax -3.00719 1.35146 -2.10354
lowerneck -6.48517 1.65642 -5.70166
upperneck 32.1444 2.47867 3.48515
head 11.3589 0.876227 2.57264
rclavicle -8.39865e-015 9.74045e-015
rhumerus -27.4128 2.3912 -83.0219
rradius 29.9982
rwrist 18.0922
rhand -25.829 4.09875
rfingers 7.12502
rthumb 0.710919 -25.8798
lclavicle -8.39865e-015 9.74045e-015
lhumerus -37.0674 27.1495 69.4564
lradius 24.3129
lwrist -3.64739
lhand -28.0998 19.7235
lfingers 7.12502
lthumb -1.4823 49.6981
rfemur -13.8523 14.9531 23.2368
rtibia 33.0938
rfoot -15.1754 -8.31115
rtoes 4.99396
lfemur -31.8794 13.2988 -16.9474
ltibia 99.659
lfoot -14.434 -6.34542
ltoes -6.5058
1042
root -2.82456 25.7598 -4.87029 -1.64771 -3.05588 2.66734
lowerback 9.46875 2.03794 -0.0943964
upperback 2.19749 2.63474 -1.72727
thorax -2.94345 1.3073 -2.04576
lowerneck -6.32954 1.67857 -5.76258
upperneck 32.2752 2.52764 3.43408
head 11.3775 0.882475 2.57045
rclavicle -2.55066e-014 -5.06901e-015
rhumerus -27.3743 2.17606 -82.8036
rradius 30.3754
rwrist 17.8786
rhand -25.543 4.27017
rfingers 7.12502
rthumb 0.987133 -25.7073
lclavicle -2.55066e-014 -5.06901e-015
lhumerus -36.8538 26.5207 70.18
lradius 24.744
lwrist -3.61519
lhand -28.0993 19.8311
lfingers 7.12502
lthumb -1.48182 49.8057
rfemur -13.6624 14.9776 23.2365
rtibia 33.1053
rfoot -15.3675 -8.44583
rtoes 5.04149
lfemur -32.2624 13.0354 -17.0537
ltibia 99.9286
lfoot -14.2491 -5.72279
ltoes -7.20378
1043
root -2.83496 25.7621 -4.8301 -1.69129 -2.94958 2.95182
lowerback 9.45071 1.99549 -0.280101
upperback 2.25513 2.55985 -1.77344
thorax -2.88223 1.27176 -1.97838
lowerneck -6.15355 1.67579 -5.51209
upperneck 32.299 2.54858 3.1605
head 11.3604 0.888876 2.4249
rclavicle -1.06598e-014 7.35503e-015
rhumerus -27.3574 2.03828 -82.6932
rradius 30.7521
rwrist 17.5528
rhand -25.534 3.89973
rfingers 7.12502
rthumb 0.995811 -26.0777
lclavicle -1.06598e-014 7.35503e-015
lhumerus -36.5785 25.7971 70.8401
lradius 25.1278
lwrist -3.3904
lhand -28.1744 19.7292
lfingers 7.12502
lthumb -1.55433 49.7033
rfemur -13.4584 15.0722 23.0201
rtibia 33.139
rfoot -15.5823 -8.66807
rtoes 5.06765
lfemur -32.5578 12.774 -17.4236
ltibia 100.078
lfoot -14.411 -4.97943
ltoes -7.62394
1044
root -2.84687 25.7655 -4.78936 -1.76454 -2.90609 3.26729
lowerback 9.50144 1.98726 -0.559219
upperback 2.29545 2.52047 -1.80483
thorax -2.88031 1.25375 -1.85084
lowerneck -6.27053 1.59586 -5.57613
upperneck 32.4191 2.40519 3.31298
head 11.4348 0.831682 2.4829
rclavicle 2.74261e-014 -2.58917e-014
rhumerus -27.3744 2.04809 -82.5797
rradius 31.1033
rwrist 17.3049
rhand -25.4036 3.34952
rfingers 7.12502
rthumb 1.12179 -26.6273
lclavicle 2.74261e-014 -2.58917e-014
lhumerus -36.2968 25.1758 71.4464
lradius 25.4352
lwrist -3.22049
lhand -28.2071 20.2301
lfingers 7.12502
lthumb -1.5859 50.204
rfemur -13.2568 15.2308 22.7923
rtibia 33.1974
rfoot -15.7384 -8.92774
rtoes 4.77115
lfemur -32.7889 12.6057 -17.8232
ltibia 100.148
lfoot -14.6566 -4.1016
ltoes -7.99148
